# xmcd
#
# Track frame offsets:
#	150
#	8465
#	18058
#	24958
#	57505
#	85083
#	103743
#	137155
#	189240
#	215498
#	234740
#	260973
#	297203
#	311330
#
# Disc length: 4510 seconds
#
# Revision: 5
# Processed by: cddbd v1.5.2PL0 Copyright (c) Steve Scherf et al.
# Submitted via: MusicWizard 6.0.2
#
DISCID=b7119c0e
DTITLE=Toon Hermans - Toon Hermans 75 Jaar [CD 2/2)
DYEAR=1991
DGENRE=Nederlands
TTITLE0=Pijpestelen
TTITLE1=De Voorzitter Opent
TTITLE2=Zeg Nou Nog Eens Een Keer Het Gaat Me Goed
TTITLE3=Dollen Met Volksliedjes
TTITLE4=24 Rozen
TTITLE5=Vakantie In Tirol
TTITLE6=Tango Truus
TTITLE7=Sex Op De Buis
TTITLE8=De Wals Van De Liefde
TTITLE9=Oh Marie, Ik Heb Je Lief
TTITLE10=Het Vaandel Van Me Vader
TTITLE11=Wat Ruist Er Door Het Struikgewas
TTITLE12=Als 'n Ballonnetje
TTITLE13=Zo Is Het Allemaal Begonnen (Medley) and Ik Heb Het Leven Lief
EXTD=
EXTT0=
EXTT1=
EXTT2=
EXTT3=
EXTT4=
EXTT5=
EXTT6=
EXTT7=
EXTT8=
EXTT9=
EXTT10=
EXTT11=
EXTT12=
EXTT13=
PLAYORDER=
